<svg xmlns="http://www.w3.org/2000/svg" version="1.1" xmlns:xlink="http://www.w3.org/1999/xlink" xmlns:svgjs="http://svgjs.dev/svgjs" viewBox="0 0 800 800"><defs><filter id="bbburst-blur-1" x="-100%" y="-100%" width="400%" height="400%"><feGaussianBlur in="SourceGraphic" stdDeviation="1"></feGaussianBlur></filter><filter id="bbburst-blur-2" x="-100%" y="-100%" width="400%" height="400%"><feGaussianBlur in="SourceGraphic" stdDeviation="2"></feGaussianBlur></filter><filter id="bbburst-blur-3" x="-100%" y="-100%" width="400%" height="400%"><feGaussianBlur in="SourceGraphic" stdDeviation="4"></feGaussianBlur></filter><filter id="bbburst-blur-4" x="-100%" y="-100%" width="400%" height="400%"><feGaussianBlur in="SourceGraphic" stdDeviation="12"></feGaussianBlur></filter><symbol id="bbburst-shape-2" viewBox="0 0 126 115"><path d="m63 0 62.77 43.877-23.976 70.996H24.206L.23 43.877 63 0Z"></path></symbol><symbol id="bbburst-shape-4" viewBox="0 0 149 143"><path d="M71.647 2.781c.898-2.764 4.808-2.764 5.706 0l15.445 47.534a3 3 0 0 0 2.853 2.073h49.98c2.906 0 4.115 3.719 1.764 5.427L106.96 87.193a2.999 2.999 0 0 0-1.09 3.354l15.445 47.534c.898 2.764-2.266 5.062-4.617 3.354l-40.435-29.378a3 3 0 0 0-3.526 0l-40.435 29.378c-2.351 1.708-5.515-.59-4.617-3.354L43.13 90.547a3 3 0 0 0-1.09-3.354L1.605 57.815c-2.35-1.708-1.142-5.427 1.764-5.427h49.98a3 3 0 0 0 2.853-2.073L71.647 2.781Z"></path></symbol><symbol id="bbburst-shape-8" viewBox="0 0 87 168"><path d="m12 12 31.2546 18.0749c16.4102 9.4902 20.014 31.6325 7.4603 45.8369L36.3296 92.1884c-12.5684 14.2206-8.9394 36.3916 7.5068 45.8636L75 156" stroke-width="14" stroke-linecap="round" stroke-linejoin="round"></path></symbol><symbol id="bbburst-shape-9" viewBox="0 0 182 172"><path d="M13.5809 69.845 91 13.5967l77.419 56.2483-29.571 91.012H43.1524L13.5809 69.845Z" stroke-width="22"></path></symbol><symbol id="bbburst-shape-13" viewBox="0 0 159 159"><path stroke-width="22" d="M11 11h137v137H11z"></path></symbol><symbol id="bbburst-shape-14" viewBox="0 0 185 109"><path d="M168 16.5C168 58.1975 134.197 92 92.5 92 50.8025 92 17 58.1975 17 16.5" stroke-width="33" stroke-linecap="round"></path></symbol></defs><use xlink:href="#bbburst-shape-13" width="30.4365297064799" opacity="0.4688124572040786" transform="matrix(0.8560154409540895,-0.5169502537461179,0.5169502537461179,0.8560154409540895,406.7656229687806,141.63318048664172)" fill="none" stroke="#2c2891" filter="url(#bbburst-blur-2)"></use><use xlink:href="#bbburst-shape-9" width="32.910709517548554" opacity="0.5972110495479572" transform="matrix(0.9913963100085765,0.13089444793946906,-0.13089444793946906,0.9913963100085765,255.55698407242784,-15.28274243823455)" fill="none" stroke="#ffa6d5" filter="url(#bbburst-blur-1)"></use><use xlink:href="#bbburst-shape-14" width="19.71656831978626" opacity="0.7741512475442387" transform="matrix(0.7731567567061328,-0.6342149710939136,0.6342149710939136,0.7731567567061328,164.95868130942432,-1.17332361511842)" fill="none" stroke="#2c2891" filter="url(#bbburst-blur-1)"></use><use xlink:href="#bbburst-shape-13" width="10.868796971397824" opacity="0.8814163297265476" transform="matrix(0.8277666835625078,-0.5610724708840447,0.5610724708840447,0.8277666835625078,180.74246483084443,124.42161705817415)" fill="none" stroke="#2c2891"></use><use xlink:href="#bbburst-shape-13" width="43.11121811516915" opacity="0.06177561186059499" transform="matrix(1.717745283668211,0.334441535153183,-0.334441535153183,1.717745283668211,270.7980107294968,62.34325622797087)" fill="none" stroke="#ff5c58" filter="url(#bbburst-blur-4)"></use><use xlink:href="#bbburst-shape-8" width="17.841699248626263" opacity="0.7306183829047999" transform="matrix(0.8094525364156507,-0.5871853125634783,0.5871853125634783,0.8094525364156507,150.60906234258078,202.45915445573075)" fill="none" stroke="#2c2891" filter="url(#bbburst-blur-1)"></use><use xlink:href="#bbburst-shape-2" width="30.486007698072765" opacity="0.5533811226830437" transform="matrix(0.8312278874804953,0.5559318295211322,-0.5559318295211322,0.8312278874804953,518.8537209747682,-120.22999787970161)" fill="#2c2891" filter="url(#bbburst-blur-2)"></use><use xlink:href="#bbburst-shape-9" width="44.91868081395415" opacity="0.16180490434612727" transform="matrix(1.0275289507136744,0.7118175717452158,-0.7118175717452158,1.0275289507136744,406.15855436470827,-304.59088187033814)" fill="none" stroke="#2c2891" filter="url(#bbburst-blur-3)"></use><use xlink:href="#bbburst-shape-8" width="30.65270025536873" opacity="0.4551261625260632" transform="matrix(0.9523941911996069,0.3048693237589617,-0.3048693237589617,0.9523941911996069,277.62667435702406,-71.34165383554353)" fill="none" stroke="#ffa6d5" filter="url(#bbburst-blur-2)"></use><use xlink:href="#bbburst-shape-8" width="43.90616110597844" opacity="0.3687960317743658" transform="matrix(0.9998371350332107,0.018047254876606172,-0.018047254876606172,0.9998371350332107,133.7572132474127,131.6589823970313)" fill="none" stroke="#ffa6d5" filter="url(#bbburst-blur-2)"></use><use xlink:href="#bbburst-shape-2" width="17.025334748257663" opacity="0.6874146302989361" transform="matrix(0.8679336539049941,-0.49668015102188845,0.49668015102188845,0.8679336539049941,269.55128210326063,-61.55373251741662)" fill="#2c2891" filter="url(#bbburst-blur-1)"></use><use xlink:href="#bbburst-shape-4" width="15.924337129964613" opacity="0.6743172942596681" transform="matrix(0.8662651676483529,0.4995844866678418,-0.4995844866678418,0.8662651676483529,533.487424213318,183.49019905148418)" fill="#00a19d" filter="url(#bbburst-blur-1)"></use><use xlink:href="#bbburst-shape-9" width="31.939844542035754" opacity="0.4414059713672941" transform="matrix(0.9163206471785708,-0.40044534153145706,0.40044534153145706,0.9163206471785708,358.8836436906241,252.47935988382199)" fill="none" stroke="#ffbd9b" filter="url(#bbburst-blur-2)"></use><use xlink:href="#bbburst-shape-2" width="45.667546154974175" opacity="0.19127633352340223" transform="matrix(1.0338886125602436,0.7025484586975155,-0.7025484586975155,1.0338886125602436,392.15715588258234,219.60600822912699)" fill="#ffa6d5" filter="url(#bbburst-blur-3)"></use><use xlink:href="#bbburst-shape-2" width="30.82603462976661" opacity="0.17856640988032824" transform="matrix(1.1050603243989037,-0.5842445373637566,0.5842445373637566,1.1050603243989037,509.6462640625609,49.295758235584515)" fill="#00a19d" filter="url(#bbburst-blur-3)"></use><use xlink:href="#bbburst-shape-8" width="14.96418839651432" opacity="0.8376303489560888" transform="matrix(0.7368338035943964,0.6760739204263202,-0.6760739204263202,0.7368338035943964,737.8958679040603,96.6439077540432)" fill="none" stroke="#00a19d"></use><use xlink:href="#bbburst-shape-4" width="27.334185355020914" opacity="0.45624639145734713" transform="matrix(0.7839177806537678,0.6208646496418291,-0.6208646496418291,0.7839177806537678,686.5529080757226,317.712599612457)" fill="#00a19d" filter="url(#bbburst-blur-2)"></use><use xlink:href="#bbburst-shape-8" width="36.550854639797" opacity="0.4193958388961493" transform="matrix(0.9899415935266839,-0.1414766461499915,0.1414766461499915,0.9899415935266839,520.1584710755793,-167.46024337179568)" fill="none" stroke="#00a19d" filter="url(#bbburst-blur-2)"></use><use xlink:href="#bbburst-shape-8" width="52.11215182044319" opacity="0.08709037998944069" transform="matrix(1.5626312398370132,0.7878347595057221,-0.7878347595057221,1.5626312398370132,319.63890203906624,-452.69442644658045)" fill="none" stroke="#ffa6d5" filter="url(#bbburst-blur-4)"></use><use xlink:href="#bbburst-shape-13" width="30.721649684808796" opacity="0.3913066639122077" transform="matrix(0.938539293452134,-0.34517241292775547,0.34517241292775547,0.938539293452134,65.6220466565436,234.68627372109245)" fill="none" stroke="#ffa6d5" filter="url(#bbburst-blur-2)"></use><use xlink:href="#bbburst-shape-9" width="17.82062528175069" opacity="0.7598058119807464" transform="matrix(0.9999226074096366,0.01244102853922198,-0.01244102853922198,0.9999226074096366,439.8103381953913,98.64084654320033)" fill="none" stroke="#2c2891" filter="url(#bbburst-blur-1)"></use><use xlink:href="#bbburst-shape-14" width="19.966316449285642" opacity="0.6915596242905397" transform="matrix(0.9088211886774493,-0.417185866264556,0.417185866264556,0.9088211886774493,120.49312190244868,133.06219094181193)" fill="none" stroke="#2c2891" filter="url(#bbburst-blur-1)"></use><use xlink:href="#bbburst-shape-14" width="17.16414235519566" opacity="0.7497180866886244" transform="matrix(0.7856723765930849,-0.6186428021553099,0.6186428021553099,0.7856723765930849,256.5952014470394,111.36752296687996)" fill="none" stroke="#00a19d" filter="url(#bbburst-blur-1)"></use><use xlink:href="#bbburst-shape-2" width="13.317155515742108" opacity="0.8194461020024232" transform="matrix(0.7435281425377851,-0.6687046442595649,0.6687046442595649,0.7435281425377851,128.58419786213466,188.28931770130657)" fill="#ffa6d5"></use><use xlink:href="#bbburst-shape-13" width="20.98764513867249" opacity="0.6078661717918015" transform="matrix(0.9381870332029176,0.3461287198859805,-0.3461287198859805,0.9381870332029176,523.7447909274188,197.4862224521002)" fill="none" stroke="#ff5c58" filter="url(#bbburst-blur-1)"></use><use xlink:href="#bbburst-shape-9" width="26.24765819260035" opacity="0.48547043468190887" transform="matrix(0.8213360575989745,-0.5704446340248753,0.5704446340248753,0.8213360575989745,381.071140528607,7.020858653831112)" fill="none" stroke="#ffa6d5" filter="url(#bbburst-blur-2)"></use><use xlink:href="#bbburst-shape-2" width="45.480731966893714" opacity="0.09213828571883742" transform="matrix(1.681049677656433,-0.4863866581755735,0.4863866581755735,1.681049677656433,-186.15093470052082,-56.31863552953041)" fill="#ff5c58" filter="url(#bbburst-blur-4)"></use><use xlink:href="#bbburst-shape-14" width="29.191132174066617" opacity="0.3335794960625731" transform="matrix(0.9657242171926539,0.25957029168923756,-0.25957029168923756,0.9657242171926539,762.0316895547588,-115.66384647357359)" fill="none" stroke="#ff5c58" filter="url(#bbburst-blur-2)"></use><use xlink:href="#bbburst-shape-8" width="50.944336283041324" opacity="-0.0744422090788932" transform="matrix(1.6764227953402215,-0.5021021920522526,0.5021021920522526,1.6764227953402215,496.6506102482435,85.78942712092737)" fill="none" stroke="#2c2891" filter="url(#bbburst-blur-4)"></use><use xlink:href="#bbburst-shape-9" width="36.811213403286786" opacity="0.2903833538891609" transform="matrix(1.2498373817685255,-0.020162319658141734,0.020162319658141734,1.2498373817685255,476.72440412214996,200.7080604103698)" fill="none" stroke="#00a19d" filter="url(#bbburst-blur-3)"></use><use xlink:href="#bbburst-shape-13" width="12.105453562925423" opacity="0.8906891704624433" transform="matrix(0.7880465864682702,0.6156156086030529,-0.6156156086030529,0.7880465864682702,675.3510981651852,116.72238253177073)" fill="none" stroke="#ffa6d5"></use><use xlink:href="#bbburst-shape-2" width="10.245618789650925" opacity="0.9966796101589833" transform="matrix(0.9685756438270909,-0.24871916328448906,0.24871916328448906,0.9685756438270909,296.2694263872196,15.159437277224526)" fill="#ffbd9b"></use><use xlink:href="#bbburst-shape-9" width="35.85069788308661" opacity="0.07955329629500418" transform="matrix(1.2613702928379649,1.2130313204307077,-1.2130313204307077,1.2613702928379649,1072.3052703396588,230.7682676759041)" fill="none" stroke="#ffbd9b" filter="url(#bbburst-blur-4)"></use><use xlink:href="#bbburst-shape-4" width="34.16236094767453" opacity="0.2886706114214793" transform="matrix(1.2203248991248878,-0.27075291425178083,0.27075291425178083,1.2203248991248878,562.9719452202955,47.433344583237044)" fill="#ffa6d5" filter="url(#bbburst-blur-3)"></use><use xlink:href="#bbburst-shape-13" width="50.762396431730686" opacity="-0.07560064648756626" transform="matrix(1.7222987956055003,-0.3101400629648529,0.3101400629648529,1.7222987956055003,568.5518370457976,-629.1328935284575)" fill="none" stroke="#ffa6d5" filter="url(#bbburst-blur-4)"></use><use xlink:href="#bbburst-shape-4" width="35.46609694594" opacity="0.30718024004905575" transform="matrix(1.1812106784230916,-0.40895150467905117,0.40895150467905117,1.1812106784230916,-41.88559201387406,-241.14791455229607)" fill="#ffa6d5" filter="url(#bbburst-blur-3)"></use><use xlink:href="#bbburst-shape-8" width="18.027955379960407" opacity="0.7795528920850452" transform="matrix(0.9226404428623831,0.3856612674286927,-0.3856612674286927,0.9226404428623831,503.58189387752134,117.16700166040118)" fill="none" stroke="#ff5c58"></use><use xlink:href="#bbburst-shape-8" width="9.749464002065922" opacity="0.9248251859687499" transform="matrix(0.9817920948324116,-0.1899586337195154,0.1899586337195154,0.9817920948324116,319.5964930477195,-25.61752810997217)" fill="none" stroke="#2c2891"></use><use xlink:href="#bbburst-shape-13" width="38.017372935183396" opacity="0.046565091306420614" transform="matrix(1.5816912833543608,0.7488342167401507,-0.7488342167401507,1.5816912833543608,1023.7225264842699,-488.9517913644027)" fill="none" stroke="#2c2891" filter="url(#bbburst-blur-4)"></use><use xlink:href="#bbburst-shape-4" width="43.25652010145845" opacity="0.08902917932193333" transform="matrix(1.5741775864666008,-0.7645030583759538,0.7645030583759538,1.5741775864666008,272.6196938288468,-563.6716023855931)" fill="#2c2891" filter="url(#bbburst-blur-4)"></use><use xlink:href="#bbburst-shape-13" width="40.48150118990844" opacity="0.16507515677217766" transform="matrix(1.249388418642396,0.03909705055695194,-0.03909705055695194,1.249388418642396,667.5270530035116,153.0980572591077)" fill="none" stroke="#ffbd9b" filter="url(#bbburst-blur-3)"></use><use xlink:href="#bbburst-shape-4" width="10.916442412865134" opacity="0.943841985770794" transform="matrix(0.9952757253384313,0.09708877665342934,-0.09708877665342934,0.9952757253384313,453.6724909397118,-13.721450406668453)" fill="#00a19d"></use><use xlink:href="#bbburst-shape-2" width="27.730486526405038" opacity="0.5608923316523626" transform="matrix(0.9982079102008558,-0.059841189931687654,0.059841189931687654,0.9982079102008558,346.40267581362855,-195.40354335772187)" fill="#2c2891" filter="url(#bbburst-blur-1)"></use><use xlink:href="#bbburst-shape-8" width="21.87122827358487" opacity="0.5427539003061805" transform="matrix(0.794229288164545,-0.6076181677843745,0.6076181677843745,0.794229288164545,301.1646322390292,226.64793573164724)" fill="none" stroke="#00a19d" filter="url(#bbburst-blur-2)"></use><use xlink:href="#bbburst-shape-13" width="23.81141080292764" opacity="0.5763138199605844" transform="matrix(0.9785790403349539,-0.20587146916734406,0.20587146916734406,0.9785790403349539,385.20331470941414,184.4487320054801)" fill="none" stroke="#ffa6d5" filter="url(#bbburst-blur-1)"></use><use xlink:href="#bbburst-shape-8" width="12.775917397022543" opacity="0.8388993392115034" transform="matrix(0.9866318478941042,0.16296501686271558,-0.16296501686271558,0.9866318478941042,456.5601650925744,-68.15181172217393)" fill="none" stroke="#00a19d"></use><use xlink:href="#bbburst-shape-14" width="37.22481617885741" opacity="0.24454387431553504" transform="matrix(1.0259697480410377,0.7140630757185318,-0.7140630757185318,1.0259697480410377,507.5608789603092,276.88948271140225)" fill="none" stroke="#ffa6d5" filter="url(#bbburst-blur-3)"></use><use xlink:href="#bbburst-shape-13" width="22.3006579016864" opacity="0.6260811742993563" transform="matrix(0.8893377010686135,-0.45725097425592587,0.45725097425592587,0.8893377010686135,355.8984648006044,128.08039682229804)" fill="none" stroke="#2c2891" filter="url(#bbburst-blur-1)"></use><use xlink:href="#bbburst-shape-9" width="22.86576608498169" opacity="0.7042609823763133" transform="matrix(0.9311657165691042,0.36459622637425465,-0.36459622637425465,0.9311657165691042,507.19059905568065,-106.86935681250606)" fill="none" stroke="#2c2891" filter="url(#bbburst-blur-1)"></use><use xlink:href="#bbburst-shape-2" width="37.78409922360373" opacity="0.1990717610407834" transform="matrix(1.0247782212466787,-0.7157720288321506,0.7157720288321506,1.0247782212466787,452.9430010860738,-32.537743687354975)" fill="#ffa6d5" filter="url(#bbburst-blur-3)"></use><use xlink:href="#bbburst-shape-2" width="23.268264907551426" opacity="0.48234410829441643" transform="matrix(0.7253999664659181,0.6883276027090915,-0.6883276027090915,0.7253999664659181,640.4526482982452,333.2812215686831)" fill="#2c2891" filter="url(#bbburst-blur-2)"></use><use xlink:href="#bbburst-shape-14" width="32.09900622042649" opacity="0.5231854433387344" transform="matrix(0.9989777246939499,0.045205149765251876,-0.045205149765251876,0.9989777246939499,616.6107118779655,-1.37834233845291)" fill="none" stroke="#ffa6d5" filter="url(#bbburst-blur-2)"></use><use xlink:href="#bbburst-shape-9" width="18.928702055236876" opacity="0.6724014799181747" transform="matrix(0.9925928502834556,0.12148840918443894,-0.12148840918443894,0.9925928502834556,532.6276019241166,115.73397727558239)" fill="none" stroke="#ffbd9b" filter="url(#bbburst-blur-1)"></use><use xlink:href="#bbburst-shape-8" width="29.478775642080954" opacity="0.2685030727579857" transform="matrix(1.200401888610729,0.34861914149942297,-0.34861914149942297,1.200401888610729,712.8457056804016,182.72954450238183)" fill="none" stroke="#ff5c58" filter="url(#bbburst-blur-3)"></use><use xlink:href="#bbburst-shape-8" width="14.107531394877334" opacity="0.9243922523431682" transform="matrix(0.9814841780222483,0.19154322825929324,-0.19154322825929324,0.9814841780222483,440.63310381461565,23.748545763259358)" fill="none" stroke="#00a19d"></use><use xlink:href="#bbburst-shape-2" width="26.46796449827283" opacity="0.5509826678515455" transform="matrix(0.8595954924771839,0.510975135709075,-0.510975135709075,0.8595954924771839,502.08538055796714,229.85644072949134)" fill="#ffa6d5" filter="url(#bbburst-blur-2)"></use><use xlink:href="#bbburst-shape-14" width="15.377205001371584" opacity="0.751380119657533" transform="matrix(0.8935766796508687,-0.44891058974380277,0.44891058974380277,0.8935766796508687,304.58081391633937,111.11468071484393)" fill="none" stroke="#ffa6d5" filter="url(#bbburst-blur-1)"></use><use xlink:href="#bbburst-shape-9" width="20.981888604520435" opacity="0.6716580074844789" transform="matrix(0.934019303636109,-0.3572225362923203,0.3572225362923203,0.934019303636109,284.4958290107263,172.9931988480909)" fill="none" stroke="#2c2891" filter="url(#bbburst-blur-1)"></use><use xlink:href="#bbburst-shape-13" width="29.835439207983026" opacity="0.17402528926979688" transform="matrix(1.1959494935744395,0.36359979210533344,-0.36359979210533344,1.1959494935744395,617.169862728871,-444.5385491752608)" fill="none" stroke="#ff5c58" filter="url(#bbburst-blur-3)"></use><use xlink:href="#bbburst-shape-2" width="13.326024858956076" opacity="0.8758560442639992" transform="matrix(0.8700828034049651,0.49290558448749267,-0.49290558448749267,0.8700828034049651,565.7283075080936,98.32526981819598)" fill="#ff5c58"></use><use xlink:href="#bbburst-shape-13" width="17.690583516359247" opacity="0.8120282934709444" transform="matrix(0.7087142901569373,-0.7054956094316593,0.7054956094316593,0.7087142901569373,40.46734345607922,76.87777782737822)" fill="none" stroke="#ffa6d5"></use><use xlink:href="#bbburst-shape-8" width="16.51333817542321" opacity="0.8861086882368224" transform="matrix(0.9408778489648488,0.3387460307181166,-0.3387460307181166,0.9408778489648488,497.6291335236423,-20.628371456156913)" fill="none" stroke="#00a19d"></use><use xlink:href="#bbburst-shape-14" width="25.19810920457004" opacity="0.589635558875997" transform="matrix(0.9996478371874271,-0.026536797216304628,0.026536797216304628,0.9996478371874271,529.4875392164345,-103.34033838670308)" fill="none" stroke="#00a19d" filter="url(#bbburst-blur-1)"></use><use xlink:href="#bbburst-shape-4" width="41.81988247036094" opacity="0.41216332071901096" transform="matrix(0.9716323372613824,-0.2364965141138091,0.2364965141138091,0.9716323372613824,20.92647170832369,30.114526897018266)" fill="#00a19d" filter="url(#bbburst-blur-2)"></use><use xlink:href="#bbburst-shape-8" width="27.823384327625003" opacity="0.40635197735930406" transform="matrix(0.9349157228874689,-0.3548698227488516,0.3548698227488516,0.9349157228874689,199.2026280523254,-232.2081750807539)" fill="none" stroke="#2c2891" filter="url(#bbburst-blur-2)"></use><use xlink:href="#bbburst-shape-13" width="12.101803958196573" opacity="0.8369134735355335" transform="matrix(0.9866940134480318,-0.1625882032184845,0.1625882032184845,0.9866940134480318,260.3888688513517,32.368173245434036)" fill="none" stroke="#ffa6d5"></use><use xlink:href="#bbburst-shape-9" width="46.63165411211159" opacity="0.20636348467188514" transform="matrix(1.2491433923684883,-0.046268621139437624,0.046268621139437624,1.2491433923684883,611.1503167208183,-345.0819249708189)" fill="none" stroke="#ffa6d5" filter="url(#bbburst-blur-3)"></use><use xlink:href="#bbburst-shape-4" width="11.159737954200416" opacity="0.9433782946998193" transform="matrix(0.9389121204238997,-0.34415698470479494,0.34415698470479494,0.9389121204238997,234.62978716660942,14.355344228698243)" fill="#2c2891"></use><use xlink:href="#bbburst-shape-8" width="9.678556362693085" opacity="0.8862719409660295" transform="matrix(0.9984631040390182,-0.055420482429952726,0.055420482429952726,0.9984631040390182,420.78603382349195,-17.437555382337962)" fill="none" stroke="#2c2891"></use><use xlink:href="#bbburst-shape-4" width="18.52319366851716" opacity="0.8141798815768937" transform="matrix(0.874388537173874,-0.48522642761800683,0.48522642761800683,0.874388537173874,257.8835399276621,-3.4226347202217653)" fill="#ff5c58"></use><use xlink:href="#bbburst-shape-14" width="27.0917423881108" opacity="0.17317888304183604" transform="matrix(1.24328496475197,-0.12939279895609665,0.12939279895609665,1.24328496475197,249.33476878107643,267.38920390059343)" fill="none" stroke="#00a19d" filter="url(#bbburst-blur-3)"></use><use xlink:href="#bbburst-shape-13" width="12.561358590264465" opacity="0.9416408698493518" transform="matrix(0.859931400774006,-0.5104096256565465,0.5104096256565465,0.859931400774006,193.1541962236552,85.35364076656782)" fill="none" stroke="#ffa6d5"></use><use xlink:href="#bbburst-shape-2" width="31.397193260956485" opacity="0.39562558765964384" transform="matrix(0.8088358761109945,0.5880344594628447,-0.5880344594628447,0.8088358761109945,527.2985111023106,322.0062754473989)" fill="#ffbd9b" filter="url(#bbburst-blur-2)"></use><use xlink:href="#bbburst-shape-2" width="34.56075230512126" opacity="0.5546671603247273" transform="matrix(0.8394430440097208,0.543447675368746,-0.543447675368746,0.8394430440097208,413.5539523297749,120.58749705914062)" fill="#ffbd9b" filter="url(#bbburst-blur-2)"></use><use xlink:href="#bbburst-shape-8" width="23.57046344711721" opacity="0.7047997487487592" transform="matrix(0.969891870604616,-0.24353595080619767,0.24353595080619767,0.969891870604616,168.23564231235338,-35.45801428576357)" fill="none" stroke="#00a19d" filter="url(#bbburst-blur-1)"></use><use xlink:href="#bbburst-shape-9" width="29.245974237887513" opacity="0.09056032730624441" transform="matrix(1.5868452642278723,-0.7378496509435873,0.7378496509435873,1.5868452642278723,-111.7240769364312,-585.0165515018462)" fill="none" stroke="#2c2891" filter="url(#bbburst-blur-4)"></use><use xlink:href="#bbburst-shape-9" width="27.350445433715254" opacity="0.6540007011099425" transform="matrix(0.7207324121849283,0.693213379866614,-0.693213379866614,0.7207324121849283,819.2438054232423,66.9730689449421)" fill="none" stroke="#ffa6d5" filter="url(#bbburst-blur-1)"></use><use xlink:href="#bbburst-shape-4" width="21.60029044790862" opacity="0.6466144290776501" transform="matrix(0.9147299262076195,0.40406578932174275,-0.40406578932174275,0.9147299262076195,585.1781057678508,-125.70605937969532)" fill="#ffa6d5" filter="url(#bbburst-blur-1)"></use><use xlink:href="#bbburst-shape-2" width="28.390777903564697" opacity="0.35753632489491316" transform="matrix(0.9772680260874632,-0.2120075592687988,0.2120075592687988,0.9772680260874632,590.4247824561011,14.65772870277948)" fill="#ffa6d5" filter="url(#bbburst-blur-2)"></use><use xlink:href="#bbburst-shape-2" width="20.063713413971907" opacity="0.7685345707200338" transform="matrix(0.8015198222226992,0.5979682053287555,-0.5979682053287555,0.8015198222226992,731.1123445224187,44.16412845003657)" fill="#00a19d" filter="url(#bbburst-blur-1)"></use><use xlink:href="#bbburst-shape-13" width="14.522118057971204" opacity="0.7676873696602181" transform="matrix(0.9902760420878461,0.1391163558566364,-0.1391163558566364,0.9902760420878461,343.9694998226748,-0.4828698258568238)" fill="none" stroke="#ffbd9b" filter="url(#bbburst-blur-1)"></use><use xlink:href="#bbburst-shape-14" width="18.83057813865674" opacity="0.717502357989644" transform="matrix(0.9428589730128066,0.3331920722484788,-0.3331920722484788,0.9428589730128066,625.8335263191303,-56.87209457468498)" fill="none" stroke="#2c2891" filter="url(#bbburst-blur-1)"></use><use xlink:href="#bbburst-shape-13" width="20.93671694456292" opacity="0.7045751283383855" transform="matrix(0.9970996409536022,-0.07610720077757173,0.07610720077757173,0.9970996409536022,232.2186220359919,41.575307640949006)" fill="none" stroke="#00a19d" filter="url(#bbburst-blur-1)"></use><use xlink:href="#bbburst-shape-4" width="10.816948634782781" opacity="0.9226506980618343" transform="matrix(0.7963257261114203,0.6048680334859161,-0.6048680334859161,0.7963257261114203,670.8809155113204,88.51183684101562)" fill="#2c2891"></use><use xlink:href="#bbburst-shape-13" width="39.90165025756333" opacity="-0.0721325881890742" transform="matrix(1.7057450215802363,0.3910676685105005,-0.3910676685105005,1.7057450215802363,181.73450997059564,-631.7389483313286)" fill="none" stroke="#00a19d" filter="url(#bbburst-blur-4)"></use><use xlink:href="#bbburst-shape-13" width="36.59739337694869" opacity="0.3395538430572731" transform="matrix(0.7104367840472308,0.7037610218480621,-0.7037610218480621,0.7104367840472308,710.9137605813705,-191.21200313018358)" fill="none" stroke="#2c2891" filter="url(#bbburst-blur-2)"></use><use xlink:href="#bbburst-shape-13" width="18.652914892219677" opacity="0.6372345067985554" transform="matrix(0.8143886248689779,0.5803198839295576,-0.5803198839295576,0.8143886248689779,785.5531556401331,95.68623832983354)" fill="none" stroke="#00a19d" filter="url(#bbburst-blur-1)"></use><use xlink:href="#bbburst-shape-9" width="40.997175343966646" opacity="0.1559872927928848" transform="matrix(0.939223928308325,0.8248384159901128,-0.8248384159901128,0.939223928308325,1064.0650629803968,-132.62225348818907)" fill="none" stroke="#ffbd9b" filter="url(#bbburst-blur-3)"></use><use xlink:href="#bbburst-shape-4" width="14.376105737546908" opacity="0.8752627920387943" transform="matrix(0.732450495537397,-0.6808202931662816,0.6808202931662816,0.732450495537397,150.27743438091989,63.19424717223069)" fill="#2c2891"></use><use xlink:href="#bbburst-shape-2" width="35.5512204755043" opacity="0.306846023456811" transform="matrix(1.1380250316446399,0.5171063984812181,-0.5171063984812181,1.1380250316446399,577.4877134188414,247.4045336463102)" fill="#2c2891" filter="url(#bbburst-blur-3)"></use><use xlink:href="#bbburst-shape-9" width="14.48230418037943" opacity="0.8743624287806883" transform="matrix(0.8799040975376726,-0.47515132235574575,0.47515132235574575,0.8799040975376726,147.5935366093599,43.118020708846814)" fill="none" stroke="#00a19d"></use><use xlink:href="#bbburst-shape-14" width="26.91965244165589" opacity="0.1711154132736985" transform="matrix(1.2254963071421372,0.24629007527910002,-0.24629007527910002,1.2254963071421372,548.2625855113832,273.59836008662836)" fill="none" stroke="#ffa6d5" filter="url(#bbburst-blur-3)"></use><use xlink:href="#bbburst-shape-2" width="32.75384329708371" opacity="0.20487984667043035" transform="matrix(1.245768843938206,-0.10276179967704929,0.10276179967704929,1.245768843938206,-19.265924247941122,-102.15109799762644)" fill="#ffa6d5" filter="url(#bbburst-blur-3)"></use><use xlink:href="#bbburst-shape-13" width="41.96332148850524" opacity="0.32204150951371047" transform="matrix(1.2289600286185394,-0.22837961392803702,0.22837961392803702,1.2289600286185394,433.8140290329751,-351.9115665477669)" fill="none" stroke="#ff5c58" filter="url(#bbburst-blur-3)"></use><use xlink:href="#bbburst-shape-13" width="28.395011708227944" opacity="0.58235430788428" transform="matrix(0.7448631921088907,-0.6672172247786726,0.6672172247786726,0.7448631921088907,-29.726470768128962,1.3585261978597032)" fill="none" stroke="#ffa6d5" filter="url(#bbburst-blur-1)"></use><use xlink:href="#bbburst-shape-9" width="17.242210020874282" opacity="0.8016211435816833" transform="matrix(0.9908158140543358,-0.13521842559297825,0.13521842559297825,0.9908158140543358,270.63528465413964,64.03443326671254)" fill="none" stroke="#ffa6d5"></use><use xlink:href="#bbburst-shape-14" width="16.897140425347853" opacity="0.8375934885816847" transform="matrix(0.9726435924108578,0.2323024798449232,-0.2323024798449232,0.9726435924108578,550.9378987258008,39.87973613205014)" fill="none" stroke="#ffa6d5"></use><use xlink:href="#bbburst-shape-13" width="43.34253926484144" opacity="0.2267384626938932" transform="matrix(1.2499295906665882,0.013267191716989712,-0.013267191716989712,1.2499295906665882,43.6229448893723,-195.79345761522416)" fill="none" stroke="#2c2891" filter="url(#bbburst-blur-3)"></use><use xlink:href="#bbburst-shape-9" width="30.24089749239909" opacity="0.5409969212075227" transform="matrix(0.9675053646622536,0.2528504881343118,-0.2528504881343118,0.9675053646622536,603.1213440591929,-161.54395385200675)" fill="none" stroke="#ffbd9b" filter="url(#bbburst-blur-2)"></use><use xlink:href="#bbburst-shape-13" width="35.76731487461113" opacity="0.07043203619487792" transform="matrix(1.603623875170632,-0.7006357591378887,0.7006357591378887,1.603623875170632,450.6821865065861,-15.245774260323628)" fill="none" stroke="#ffbd9b" filter="url(#bbburst-blur-4)"></use><use xlink:href="#bbburst-shape-2" width="39.18186491082865" opacity="0.3043477186240423" transform="matrix(0.9978696829212108,-0.7528320502653446,0.7528320502653446,0.9978696829212108,-57.419252759484095,-265.9733627827617)" fill="#ffa6d5" filter="url(#bbburst-blur-3)"></use><use xlink:href="#bbburst-shape-8" width="42.64800315160602" opacity="-0.07165504526277666" transform="matrix(1.4243754391732737,-1.0166880584918578,1.0166880584918578,1.4243754391732737,-381.6500505878651,189.28685003556166)" fill="none" stroke="#ffa6d5" filter="url(#bbburst-blur-4)"></use><use xlink:href="#bbburst-shape-8" width="28.79181172244629" opacity="0.7002901248268774" transform="matrix(0.9315255216480516,0.3636759581252592,-0.3636759581252592,0.9315255216480516,446.7992065150628,-82.34600445569231)" fill="none" stroke="#ff5c58" filter="url(#bbburst-blur-1)"></use><use xlink:href="#bbburst-shape-8" width="33.15882065532759" opacity="0.5525130899903443" transform="matrix(0.9775211146081658,0.21083754526935908,-0.21083754526935908,0.9775211146081658,317.070872252127,138.65443437174804)" fill="none" stroke="#2c2891" filter="url(#bbburst-blur-2)"></use><use xlink:href="#bbburst-shape-9" width="30.543880948720357" opacity="0.19731255988831087" transform="matrix(1.1927047894822702,-0.3741059811685104,0.3741059811685104,1.1927047894822702,181.82315450396464,-429.31220566990834)" fill="none" stroke="#2c2891" filter="url(#bbburst-blur-3)"></use><use xlink:href="#bbburst-shape-13" width="32.81751321573676" opacity="0.38158124697606166" transform="matrix(0.8582963700456159,0.5131543054155535,-0.5131543054155535,0.8582963700456159,808.9158401528289,221.5666092216273)" fill="none" stroke="#2c2891" filter="url(#bbburst-blur-2)"></use><use xlink:href="#bbburst-shape-2" width="17.637192892424025" opacity="0.8012991897313596" transform="matrix(0.7881090031342474,-0.6155357009782152,0.6155357009782152,0.7881090031342474,106.76580781646885,10.259900873562344)" fill="#ff5c58"></use><use xlink:href="#bbburst-shape-8" width="11.262121563592714" opacity="0.8254464681600663" transform="matrix(0.8555994023482411,-0.5176385444509835,0.5176385444509835,0.8555994023482411,232.86654394086986,125.23747717453068)" fill="none" stroke="#ffa6d5"></use><use xlink:href="#bbburst-shape-13" width="42.58402888547798" opacity="0.4257369864093572" transform="matrix(0.7615151760316241,-0.648147079507055,0.648147079507055,0.7615151760316241,-45.57357900030681,-85.34580655997712)" fill="none" stroke="#00a19d" filter="url(#bbburst-blur-2)"></use><use xlink:href="#bbburst-shape-4" width="29.549108624730266" opacity="0.4903668435881027" transform="matrix(0.9999163347501104,-0.012935358514746288,0.012935358514746288,0.9999163347501104,443.8445806720836,-220.03277686016375)" fill="#2c2891" filter="url(#bbburst-blur-2)"></use><use xlink:href="#bbburst-shape-9" width="45.93466382123558" opacity="0.20493679798768982" transform="matrix(0.9157018149777131,-0.8508761284972814,0.8508761284972814,0.9157018149777131,-306.6442314858233,147.74649838729107)" fill="none" stroke="#2c2891" filter="url(#bbburst-blur-3)"></use></svg>
